# Blender v3.6.4 OBJ File: ''
# www.blender.org
mtllib mesh.mtl
o Cube_0
v 0.067335 -0.000000 -0.095900
v 0.051229 -0.000000 -0.132504
v 0.037870 -0.036704 -0.132504
v 0.050207 -0.047057 -0.095900
v 0.046837 -0.000000 -0.498535
v -0.004408 -0.000000 -0.500000
v -0.004750 -0.000941 -0.500000
v 0.034506 -0.033881 -0.498535
v 0.134685 -0.000000 0.038800
v 0.101801 -0.090348 0.038800
v 0.169824 -0.000000 0.144217
v 0.128719 -0.112935 0.144217
v 0.076120 -0.000000 -0.441434
v 0.046837 -0.000000 -0.444363
v 0.034506 -0.033881 -0.444363
v 0.056937 -0.052703 -0.441434
v 0.185929 -0.000000 0.330161
v 0.141056 -0.123287 0.330162
v 0.080512 -0.000000 -0.428257
v 0.060301 -0.055526 -0.428257
v 0.188857 -0.000000 0.475109
v 0.143299 -0.125170 0.475109
v 0.042444 -0.000000 -0.382869
v 0.031140 -0.031057 -0.382869
v 0.098082 0.000000 0.491215
v 0.073760 -0.066819 0.491215
v 0.046837 -0.000000 -0.214494
v 0.034506 -0.033881 -0.214494
v -0.005872 0.000000 0.500000
v 0.006840 -0.072095 -0.095900
v 0.018536 -0.138422 0.038800
v 0.024637 -0.173026 0.144217
v 0.003281 -0.051908 -0.444363
v 0.008366 -0.080746 -0.441434
v 0.027434 -0.188887 0.330162
v 0.009128 -0.085071 -0.428257
v 0.027942 -0.191771 0.475109
v 0.002518 -0.047582 -0.382869
v 0.012180 -0.102374 0.491215
v 0.003281 -0.051908 -0.214494
v 0.004043 -0.056233 -0.132504
v 0.003281 -0.051908 -0.498535
v -0.005617 -0.001442 -0.500000
v -0.076150 -0.121725 0.038800
v -0.093720 -0.152156 0.144217
v -0.032226 -0.045647 -0.444363
v -0.046867 -0.071007 -0.441434
v -0.101772 -0.166105 0.330162
v -0.049063 -0.074811 -0.428257
v -0.103236 -0.168640 0.475109
v -0.030030 -0.041844 -0.382869
v -0.057848 -0.090026 0.491215
v -0.032226 -0.045647 -0.214494
v -0.034423 -0.049451 -0.132504
v -0.032226 -0.045647 -0.498535
v -0.042475 -0.063398 -0.095900
v -0.006604 -0.001268 -0.500000
v -0.137952 -0.048073 0.038800
v -0.170972 -0.060092 0.144217
v -0.055402 -0.018027 -0.444363
v -0.082919 -0.028042 -0.441434
v -0.186105 -0.065600 0.330161
v -0.087046 -0.029545 -0.428257
v -0.188857 -0.066601 0.475109
v -0.051274 -0.016525 -0.382869
v -0.103556 -0.035554 0.491215
v -0.055402 -0.018027 -0.214494
v -0.059529 -0.019530 -0.132504
v -0.055402 -0.018027 -0.498535
v -0.074663 -0.025038 -0.095900
v -0.007247 -0.000501 -0.500000
v -0.170972 0.060092 0.144217
v -0.186105 0.065600 0.330161
v -0.082919 0.028042 -0.441434
v -0.087046 0.029545 -0.428257
v -0.188857 0.066601 0.475109
v -0.051274 0.016526 -0.382869
v -0.103556 0.035554 0.491215
v -0.055402 0.018027 -0.214494
v -0.059529 0.019530 -0.132504
v -0.055402 0.018027 -0.498535
v -0.055402 0.018027 -0.444363
v -0.074663 0.025038 -0.095900
v -0.007247 0.000501 -0.500000
v -0.137952 0.048073 0.038800
v -0.046867 0.071006 -0.441434
v -0.049063 0.074811 -0.428257
v -0.101772 0.166104 0.330161
v -0.103236 0.168640 0.475109
v -0.030030 0.041843 -0.382869
v -0.057848 0.090026 0.491215
v -0.032226 0.045647 -0.214494
v -0.034423 0.049451 -0.132504
v -0.032226 0.045648 -0.498535
v -0.032226 0.045648 -0.444363
v -0.042475 0.063398 -0.095900
v -0.006604 0.001268 -0.500000
v -0.076150 0.121725 0.038800
v -0.093720 0.152156 0.144217
v 0.027434 0.188887 0.330161
v 0.027942 0.191771 0.475109
v 0.009129 0.085071 -0.428257
v 0.002518 0.047582 -0.382869
v 0.012180 0.102374 0.491215
v 0.003281 0.051908 -0.214494
v 0.004044 0.056234 -0.132504
v 0.003281 0.051908 -0.498535
v 0.003281 0.051908 -0.444363
v 0.006840 0.072095 -0.095900
v -0.005617 0.001442 -0.500000
v 0.018536 0.138421 0.038800
v 0.024637 0.173026 0.144217
v 0.008366 0.080746 -0.441434
v 0.060302 0.055527 -0.428257
v 0.031140 0.031057 -0.382869
v 0.143299 0.125170 0.475109
v 0.073760 0.066819 0.491215
v 0.034506 0.033880 -0.214494
v 0.037870 0.036704 -0.132504
v 0.034506 0.033880 -0.498535
v 0.034506 0.033880 -0.444363
v 0.050207 0.047057 -0.095900
v -0.004750 0.000941 -0.500000
v 0.101801 0.090348 0.038800
v 0.128719 0.112935 0.144217
v 0.056937 0.052702 -0.441434
v 0.141056 0.123287 0.330161
vt 0.505960 0.972150
vt 0.606130 0.964390
vt 0.582710 0.962160
vt 0.523410 0.960640
vt 0.455970 0.960550
vt 0.411950 0.961930
vt 0.411950 0.964140
vt 0.455970 0.966140
vt 0.523410 0.966990
vt 0.582710 0.966300
vt 0.580480 0.399050
vt 0.565220 0.363710
vt 0.552350 0.362480
vt 0.563990 0.397480
vt 0.563460 0.011360
vt 0.514110 0.009600
vt 0.513780 0.009570
vt 0.551580 0.010220
vt 0.644440 0.529160
vt 0.612770 0.526140
vt 0.677570 0.630870
vt 0.637980 0.627090
vt 0.591270 0.066520
vt 0.563090 0.063500
vt 0.551210 0.062370
vt 0.572800 0.064750
vt 0.691820 0.809960
vt 0.648610 0.805840
vt 0.595410 0.079230
vt 0.575950 0.077370
vt 0.693670 0.949500
vt 0.649790 0.945320
vt 0.558450 0.122660
vt 0.547560 0.121620
vt 0.561540 0.284760
vt 0.549670 0.283630
vt 0.522220 0.396410
vt 0.532580 0.524090
vt 0.537740 0.624530
vt 0.521140 0.061600
vt 0.526020 0.063560
vt 0.539180 0.803040
vt 0.526670 0.076110
vt 0.538700 0.942470
vt 0.519990 0.120920
vt 0.519590 0.282860
vt 0.519780 0.361650
vt 0.521510 0.009450
vt 0.512950 0.009550
vt 0.441390 0.523970
vt 0.423760 0.624380
vt 0.486950 0.061550
vt 0.472830 0.063490
vt 0.414750 0.802870
vt 0.470620 0.076040
vt 0.412360 0.942310
vt 0.488650 0.120880
vt 0.485400 0.282810
vt 0.482730 0.361600
vt 0.487310 0.009410
vt 0.474730 0.396350
vt 0.512000 0.009550
vt 0.381870 0.525840
vt 0.349360 0.626710
vt 0.464630 0.062250
vt 0.438110 0.064570
vt 0.333530 0.805420
vt 0.434050 0.077180
vt 0.329900 0.944890
vt 0.468190 0.121520
vt 0.463080 0.283510
vt 0.458550 0.362360
vt 0.464990 0.010110
vt 0.443730 0.397320
vt 0.511380 0.009570
vt 0.349360 0.630440
vt 0.333530 0.809490
vt 0.438110 0.066310
vt 0.434050 0.079020
vt 0.329900 0.949020
vt 0.468190 0.122540
vt 0.463080 0.284630
vt 0.458550 0.363570
vt 0.464990 0.011230
vt 0.464630 0.063370
vt 0.443730 0.398870
vt 0.511380 0.009600
vt 0.381870 0.528820
vt 0.472830 0.067890
vt 0.470620 0.080680
vt 0.414750 0.813170
vt 0.412360 0.952770
vt 0.488650 0.123470
vt 0.485400 0.285640
vt 0.482730 0.364670
vt 0.487310 0.012240
vt 0.486950 0.064380
vt 0.474730 0.400280
vt 0.512000 0.009630
vt 0.441390 0.531520
vt 0.423760 0.633810
vt 0.539180 0.814750
vt 0.538700 0.954370
vt 0.526670 0.081390
vt 0.519990 0.123870
vt 0.519590 0.286080
vt 0.519780 0.365140
vt 0.521510 0.012670
vt 0.521140 0.064820
vt 0.522220 0.400880
vt 0.512950 0.009640
vt 0.532580 0.532670
vt 0.537740 0.635260
vt 0.526020 0.068560
vt 0.575950 0.080810
vt 0.547560 0.123550
vt 0.649790 0.953080
vt 0.549670 0.285730
vt 0.552350 0.364760
vt 0.551580 0.012320
vt 0.551210 0.064470
vt 0.563990 0.400400
vt 0.513780 0.009630
vt 0.612770 0.531740
vt 0.637980 0.634100
vt 0.572800 0.068020
vt 0.648610 0.813480
vn -0.0000 -0.0000 -1.0000
vn -0.1395 -0.0000 -0.9902
vn -0.1069 0.0897 -0.9902
vn -0.0242 0.1374 -0.9902
vn 0.0698 0.1208 -0.9902
vn 0.1311 0.0477 -0.9902
vn 0.1311 -0.0477 -0.9902
vn 0.0698 -0.1208 -0.9902
vn -0.0242 -0.1374 -0.9902
vn -0.1069 -0.0897 -0.9902
vn -0.9042 0.0000 0.4272
vn -0.9705 -0.0000 0.2412
vn -0.7434 0.6238 0.2412
vn -0.6926 0.5812 0.4272
vn -0.7777 0.0000 0.6286
vn -0.0286 -0.0000 0.9996
vn -0.0219 0.0184 0.9996
vn -0.5958 0.4999 0.6286
vn -0.9261 0.0000 0.3773
vn -0.7094 0.5953 0.3773
vn -0.9803 0.0000 0.1978
vn -0.7509 0.6301 0.1978
vn -0.6876 0.0000 0.7261
vn -0.6580 -0.0000 0.7530
vn -0.5041 0.4230 0.7530
vn -0.5267 0.4420 0.7261
vn -0.9986 -0.0000 0.0529
vn -0.7650 0.6419 0.0529
vn -0.9854 0.0000 -0.1700
vn -0.7549 0.6334 -0.1700
vn -0.8197 -0.0000 -0.5728
vn -0.6279 0.5269 -0.5728
vn -0.9343 0.0000 -0.3564
vn -0.7157 0.6006 -0.3564
vn -0.9992 -0.0000 0.0399
vn -0.7654 0.6423 0.0399
vn -0.1570 0.8904 0.4272
vn -0.1608 0.9120 0.3773
vn -0.1702 0.9654 0.1978
vn -0.1143 0.6480 0.7530
vn -0.1194 0.6772 0.7261
vn -0.1734 0.9834 0.0529
vn -0.1711 0.9705 -0.1700
vn -0.1423 0.8072 -0.5728
vn -0.1623 0.9201 -0.3564
vn -0.1735 0.9840 0.0399
vn -0.1685 0.9557 0.2412
vn -0.1350 0.7659 0.6286
vn -0.0050 0.0281 0.9996
vn 0.4630 0.8020 0.3773
vn 0.4901 0.8489 0.1978
vn 0.3290 0.5699 0.7530
vn 0.3438 0.5955 0.7261
vn 0.4993 0.8648 0.0529
vn 0.4927 0.8534 -0.1700
vn 0.4098 0.7099 -0.5728
vn 0.4672 0.8091 -0.3564
vn 0.4996 0.8653 0.0399
vn 0.4852 0.8405 0.2412
vn 0.3889 0.6735 0.6286
vn 0.4521 0.7830 0.4272
vn 0.0143 0.0247 0.9996
vn 0.8702 0.3167 0.3773
vn 0.9211 0.3353 0.1978
vn 0.6184 0.2251 0.7530
vn 0.6461 0.2352 0.7261
vn 0.9384 0.3415 0.0529
vn 0.9260 0.3370 -0.1700
vn 0.7702 0.2803 -0.5728
vn 0.8780 0.3195 -0.3564
vn 0.9389 0.3417 0.0399
vn 0.9119 0.3319 0.2412
vn 0.7308 0.2660 0.6286
vn 0.8496 0.3092 0.4272
vn 0.0269 0.0098 0.9996
vn 0.9211 -0.3353 0.1978
vn 0.9384 -0.3415 0.0529
vn 0.6461 -0.2352 0.7261
vn 0.9260 -0.3370 -0.1700
vn 0.7702 -0.2803 -0.5728
vn 0.8780 -0.3196 -0.3564
vn 0.9389 -0.3417 0.0399
vn 0.9119 -0.3319 0.2412
vn 0.7308 -0.2660 0.6286
vn 0.6184 -0.2251 0.7530
vn 0.8496 -0.3092 0.4272
vn 0.0269 -0.0098 0.9996
vn 0.8702 -0.3167 0.3773
vn 0.3438 -0.5955 0.7261
vn 0.4927 -0.8534 -0.1700
vn 0.4993 -0.8648 0.0529
vn 0.4098 -0.7099 -0.5728
vn 0.4671 -0.8092 -0.3564
vn 0.4996 -0.8653 0.0399
vn 0.4852 -0.8404 0.2412
vn 0.3889 -0.6735 0.6286
vn 0.3290 -0.5699 0.7530
vn 0.4521 -0.7830 0.4272
vn 0.0143 -0.0247 0.9996
vn 0.4630 -0.8020 0.3773
vn 0.4901 -0.8489 0.1978
vn -0.1734 -0.9834 0.0529
vn -0.1423 -0.8072 -0.5728
vn -0.1711 -0.9705 -0.1700
vn -0.1622 -0.9201 -0.3564
vn -0.1735 -0.9840 0.0399
vn -0.1685 -0.9557 0.2412
vn -0.1351 -0.7659 0.6286
vn -0.1143 -0.6480 0.7530
vn -0.1570 -0.8904 0.4272
vn -0.0049 -0.0281 0.9996
vn -0.1608 -0.9120 0.3773
vn -0.1702 -0.9654 0.1978
vn -0.1194 -0.6772 0.7261
vn -0.7549 -0.6334 -0.1700
vn -0.7157 -0.6006 -0.3564
vn -0.6279 -0.5269 -0.5728
vn -0.7654 -0.6423 0.0399
vn -0.7434 -0.6238 0.2412
vn -0.5958 -0.4999 0.6286
vn -0.5041 -0.4230 0.7530
vn -0.6926 -0.5812 0.4272
vn -0.0219 -0.0184 0.9996
vn -0.7094 -0.5953 0.3773
vn -0.7509 -0.6301 0.1978
vn -0.5267 -0.4420 0.7261
vn -0.7650 -0.6419 0.0529
usemtl Material.001
s 1
f 29/1/1 25/2/2 26/3/3
f 29/1/1 26/3/3 39/4/4
f 29/1/1 39/4/4 52/5/5
f 29/1/1 52/5/5 66/6/6
f 29/1/1 66/6/6 78/7/7
f 29/1/1 78/7/7 91/8/8
f 29/1/1 91/8/8 104/9/9
f 29/1/1 104/9/9 117/10/10
f 29/1/1 117/10/10 25/2/2
f 1/11/11 2/12/12 3/13/13
f 1/11/11 3/13/13 4/14/14
f 5/15/15 6/16/16 7/17/17
f 5/15/15 7/17/17 8/18/18
f 9/19/19 1/11/11 4/14/14
f 9/19/19 4/14/14 10/20/20
f 11/21/21 9/19/19 10/20/20
f 11/21/21 10/20/20 12/22/22
f 13/23/23 14/24/24 15/25/25
f 13/23/23 15/25/25 16/26/26
f 17/27/27 11/21/21 12/22/22
f 17/27/27 12/22/22 18/28/28
f 19/29/29 13/23/23 16/26/26
f 19/29/29 16/26/26 20/30/30
f 21/31/31 17/27/27 18/28/28
f 21/31/31 18/28/28 22/32/32
f 23/33/33 19/29/29 20/30/30
f 23/33/33 20/30/30 24/34/34
f 25/2/2 21/31/31 22/32/32
f 25/2/2 22/32/32 26/3/3
f 27/35/35 23/33/33 24/34/34
f 27/35/35 24/34/34 28/36/36
f 2/12/12 27/35/35 28/36/36
f 2/12/12 28/36/36 3/13/13
f 14/24/24 5/15/15 8/18/18
f 14/24/24 8/18/18 15/25/25
f 10/20/20 4/14/14 30/37/37
f 10/20/20 30/37/37 31/38/38
f 12/22/22 10/20/20 31/38/38
f 12/22/22 31/38/38 32/39/39
f 16/26/26 15/25/25 33/40/40
f 16/26/26 33/40/40 34/41/41
f 18/28/28 12/22/22 32/39/39
f 18/28/28 32/39/39 35/42/42
f 20/30/30 16/26/26 34/41/41
f 20/30/30 34/41/41 36/43/43
f 22/32/32 18/28/28 35/42/42
f 22/32/32 35/42/42 37/44/44
f 24/34/34 20/30/30 36/43/43
f 24/34/34 36/43/43 38/45/45
f 26/3/3 22/32/32 37/44/44
f 26/3/3 37/44/44 39/4/4
f 28/36/36 24/34/34 38/45/45
f 28/36/36 38/45/45 40/46/46
f 3/13/13 28/36/36 40/46/46
f 3/13/13 40/46/46 41/47/47
f 15/25/25 8/18/18 42/48/48
f 15/25/25 42/48/48 33/40/40
f 4/14/14 3/13/13 41/47/47
f 4/14/14 41/47/47 30/37/37
f 8/18/18 7/17/17 43/49/49
f 8/18/18 43/49/49 42/48/48
f 32/39/39 31/38/38 44/50/50
f 32/39/39 44/50/50 45/51/51
f 34/41/41 33/40/40 46/52/52
f 34/41/41 46/52/52 47/53/53
f 35/42/42 32/39/39 45/51/51
f 35/42/42 45/51/51 48/54/54
f 36/43/43 34/41/41 47/53/53
f 36/43/43 47/53/53 49/55/55
f 37/44/44 35/42/42 48/54/54
f 37/44/44 48/54/54 50/56/56
f 38/45/45 36/43/43 49/55/55
f 38/45/45 49/55/55 51/57/57
f 39/4/4 37/44/44 50/56/56
f 39/4/4 50/56/56 52/5/5
f 40/46/46 38/45/45 51/57/57
f 40/46/46 51/57/57 53/58/58
f 41/47/47 40/46/46 53/58/58
f 41/47/47 53/58/58 54/59/59
f 33/40/40 42/48/48 55/60/60
f 33/40/40 55/60/60 46/52/52
f 30/37/37 41/47/47 54/59/59
f 30/37/37 54/59/59 56/61/61
f 42/48/48 43/49/49 57/62/62
f 42/48/48 57/62/62 55/60/60
f 31/38/38 30/37/37 56/61/61
f 31/38/38 56/61/61 44/50/50
f 45/51/51 44/50/50 58/63/63
f 45/51/51 58/63/63 59/64/64
f 47/53/53 46/52/52 60/65/65
f 47/53/53 60/65/65 61/66/66
f 48/54/54 45/51/51 59/64/64
f 48/54/54 59/64/64 62/67/67
f 49/55/55 47/53/53 61/66/66
f 49/55/55 61/66/66 63/68/68
f 50/56/56 48/54/54 62/67/67
f 50/56/56 62/67/67 64/69/69
f 51/57/57 49/55/55 63/68/68
f 51/57/57 63/68/68 65/70/70
f 52/5/5 50/56/56 64/69/69
f 52/5/5 64/69/69 66/6/6
f 53/58/58 51/57/57 65/70/70
f 53/58/58 65/70/70 67/71/71
f 54/59/59 53/58/58 67/71/71
f 54/59/59 67/71/71 68/72/72
f 46/52/52 55/60/60 69/73/73
f 46/52/52 69/73/73 60/65/65
f 56/61/61 54/59/59 68/72/72
f 56/61/61 68/72/72 70/74/74
f 55/60/60 57/62/62 71/75/75
f 55/60/60 71/75/75 69/73/73
f 44/50/50 56/61/61 70/74/74
f 44/50/50 70/74/74 58/63/63
f 62/67/67 59/64/64 72/76/76
f 62/67/67 72/76/76 73/77/77
f 63/68/68 61/66/66 74/78/78
f 63/68/68 74/78/78 75/79/79
f 64/69/69 62/67/67 73/77/77
f 64/69/69 73/77/77 76/80/80
f 65/70/70 63/68/68 75/79/79
f 65/70/70 75/79/79 77/81/81
f 66/6/6 64/69/69 76/80/80
f 66/6/6 76/80/80 78/7/7
f 67/71/71 65/70/70 77/81/81
f 67/71/71 77/81/81 79/82/82
f 68/72/72 67/71/71 79/82/82
f 68/72/72 79/82/82 80/83/83
f 60/65/65 69/73/73 81/84/84
f 60/65/65 81/84/84 82/85/85
f 70/74/74 68/72/72 80/83/83
f 70/74/74 80/83/83 83/86/86
f 69/73/73 71/75/75 84/87/87
f 69/73/73 84/87/87 81/84/84
f 58/63/63 70/74/74 83/86/86
f 58/63/63 83/86/86 85/88/88
f 59/64/64 58/63/63 85/88/88
f 59/64/64 85/88/88 72/76/76
f 61/66/66 60/65/65 82/85/85
f 61/66/66 82/85/85 74/78/78
f 75/79/79 74/78/78 86/89/89
f 75/79/79 86/89/89 87/90/90
f 76/80/80 73/77/77 88/91/91
f 76/80/80 88/91/91 89/92/92
f 77/81/81 75/79/79 87/90/90
f 77/81/81 87/90/90 90/93/93
f 78/7/7 76/80/80 89/92/92
f 78/7/7 89/92/92 91/8/8
f 79/82/82 77/81/81 90/93/93
f 79/82/82 90/93/93 92/94/94
f 80/83/83 79/82/82 92/94/94
f 80/83/83 92/94/94 93/95/95
f 82/85/85 81/84/84 94/96/96
f 82/85/85 94/96/96 95/97/97
f 83/86/86 80/83/83 93/95/95
f 83/86/86 93/95/95 96/98/98
f 81/84/84 84/87/87 97/99/99
f 81/84/84 97/99/99 94/96/96
f 85/88/88 83/86/86 96/98/98
f 85/88/88 96/98/98 98/100/100
f 72/76/76 85/88/88 98/100/100
f 72/76/76 98/100/100 99/101/101
f 74/78/78 82/85/85 95/97/97
f 74/78/78 95/97/97 86/89/89
f 73/77/77 72/76/76 99/101/101
f 73/77/77 99/101/101 88/91/91
f 89/92/92 88/91/91 100/102/102
f 89/92/92 100/102/102 101/103/103
f 90/93/93 87/90/90 102/104/104
f 90/93/93 102/104/104 103/105/105
f 91/8/8 89/92/92 101/103/103
f 91/8/8 101/103/103 104/9/9
f 92/94/94 90/93/93 103/105/105
f 92/94/94 103/105/105 105/106/106
f 93/95/95 92/94/94 105/106/106
f 93/95/95 105/106/106 106/107/107
f 95/97/97 94/96/96 107/108/108
f 95/97/97 107/108/108 108/109/109
f 96/98/98 93/95/95 106/107/107
f 96/98/98 106/107/107 109/110/110
f 94/96/96 97/99/99 110/111/111
f 94/96/96 110/111/111 107/108/108
f 98/100/100 96/98/98 109/110/110
f 98/100/100 109/110/110 111/112/112
f 99/101/101 98/100/100 111/112/112
f 99/101/101 111/112/112 112/113/113
f 86/89/89 95/97/97 108/109/109
f 86/89/89 108/109/109 113/114/114
f 88/91/91 99/101/101 112/113/113
f 88/91/91 112/113/113 100/102/102
f 87/90/90 86/89/89 113/114/114
f 87/90/90 113/114/114 102/104/104
f 103/105/105 102/104/104 114/115/115
f 103/105/105 114/115/115 115/116/116
f 104/9/9 101/103/103 116/117/117
f 104/9/9 116/117/117 117/10/10
f 105/106/106 103/105/105 115/116/116
f 105/106/106 115/116/116 118/118/118
f 106/107/107 105/106/106 118/118/118
f 106/107/107 118/118/118 119/119/119
f 108/109/109 107/108/108 120/120/120
f 108/109/109 120/120/120 121/121/121
f 109/110/110 106/107/107 119/119/119
f 109/110/110 119/119/119 122/122/122
f 107/108/108 110/111/111 123/123/123
f 107/108/108 123/123/123 120/120/120
f 111/112/112 109/110/110 122/122/122
f 111/112/112 122/122/122 124/124/124
f 112/113/113 111/112/112 124/124/124
f 112/113/113 124/124/124 125/125/125
f 113/114/114 108/109/109 121/121/121
f 113/114/114 121/121/121 126/126/126
f 100/102/102 112/113/113 125/125/125
f 100/102/102 125/125/125 127/127/127
f 102/104/104 113/114/114 126/126/126
f 102/104/104 126/126/126 114/115/115
f 101/103/103 100/102/102 127/127/127
f 101/103/103 127/127/127 116/117/117
f 117/10/10 116/117/117 21/31/31
f 117/10/10 21/31/31 25/2/2
f 23/33/33 27/35/35 118/118/118
f 23/33/33 118/118/118 115/116/116
f 119/119/119 118/118/118 27/35/35
f 119/119/119 27/35/35 2/12/12
f 121/121/121 120/120/120 5/15/15
f 121/121/121 5/15/15 14/24/24
f 122/122/122 119/119/119 2/12/12
f 122/122/122 2/12/12 1/11/11
f 120/120/120 123/123/123 6/16/16
f 120/120/120 6/16/16 5/15/15
f 124/124/124 122/122/122 1/11/11
f 124/124/124 1/11/11 9/19/19
f 125/125/125 124/124/124 9/19/19
f 125/125/125 9/19/19 11/21/21
f 126/126/126 121/121/121 14/24/24
f 126/126/126 14/24/24 13/23/23
f 127/127/127 125/125/125 11/21/21
f 127/127/127 11/21/21 17/27/27
f 114/115/115 126/126/126 13/23/23
f 114/115/115 13/23/23 19/29/29
f 116/117/117 127/127/127 17/27/27
f 116/117/117 17/27/27 21/31/31
f 19/29/29 23/33/33 115/116/116
f 19/29/29 115/116/116 114/115/115
